HIERARCHY
ROOT hip
{
  OFFSET 0 0 0
  CHANNELS 6 Xposition Yposition Zposition Zrotation Yrotation Xrotation
  JOINT abdomen
  {
    OFFSET 0 20.6881 -0.73152
    CHANNELS 3 Zrotation Xrotation Yrotation
    JOINT chest
    {
      OFFSET 0 11.7043 -0.48768
      CHANNELS 3 Zrotation Xrotation Yrotation
      JOINT neck
      {
        OFFSET 0 22.1894 -2.19456
        CHANNELS 3 Zrotation Xrotation Yrotation
        JOINT head
        {
          OFFSET -0.24384 7.07133 1.2192
          CHANNELS 3 Zrotation Xrotation Yrotation
          JOINT leftEye
          {
            OFFSET 4.14528 8.04674 8.04672
            CHANNELS 3 Zrotation Xrotation Yrotation
            End Site
            {
              OFFSET 1 0 0
            }
          }
          JOINT rightEye
          {
            OFFSET -3.6576 8.04674 8.04672
            CHANNELS 3 Zrotation Xrotation Yrotation
            End Site
            {
              OFFSET 1 0 0
            }
          }
        }
      }
      JOINT rCollar
      {
        OFFSET -2.68224 19.2634 -4.8768
        CHANNELS 3 Zrotation Xrotation Yrotation
        JOINT rShldr
        {
          OFFSET -8.77824 -1.95073 1.46304
          CHANNELS 3 Zrotation Xrotation Yrotation
          JOINT rForeArm
          {
            OFFSET -28.1742 -1.7115 0.48768
            CHANNELS 3 Zrotation Xrotation Yrotation
            JOINT rHand
            {
              OFFSET -22.5879 0.773209 7.07136
              CHANNELS 3 Zrotation Xrotation Yrotation
              JOINT rThumb1
              {
                OFFSET -1.2192 -0.487915 3.41376
                CHANNELS 3 Zrotation Xrotation Yrotation
                JOINT rThumb2
                {
                  OFFSET -3.37035 -0.52449 3.41376
                  CHANNELS 3 Zrotation Xrotation Yrotation
                  End Site
                  {
                    OFFSET -1.78271 -1.18214 1.43049
                  }
                }
              }
              JOINT rIndex1
              {
                OFFSET -7.75947 0.938293 5.60832
                CHANNELS 3 Zrotation Xrotation Yrotation
                JOINT rIndex2
                {
                  OFFSET -2.54057 -0.884171 1.56538
                  CHANNELS 3 Zrotation Xrotation Yrotation
                  End Site
                  {
                    OFFSET -1.62519 -0.234802 1.16502
                  }
                }
              }
              JOINT rMid1
              {
                OFFSET -8.24714 1.18213 3.41376
                CHANNELS 3 Zrotation Xrotation Yrotation
                JOINT rMid2
                {
                  OFFSET -3.10165 -0.590103 1.0647
                  CHANNELS 3 Zrotation Xrotation Yrotation
                  End Site
                  {
                    OFFSET -2.48547 -0.328903 0.83742
                  }
                }
              }
              JOINT rRing1
              {
                OFFSET -8.82822 0.546677 1.51678
                CHANNELS 3 Zrotation Xrotation Yrotation
                JOINT rRing2
                {
                  OFFSET -2.60934 -0.819778 -0.0198488
                  CHANNELS 3 Zrotation Xrotation Yrotation
                  End Site
                  {
                    OFFSET -2.33842 -0.294052 0.168128
                  }
                }
              }
              JOINT rPinky1
              {
                OFFSET -8.27202 -0.0477905 -0.4584
                CHANNELS 3 Zrotation Xrotation Yrotation
                JOINT rPinky2
                {
                  OFFSET -1.82734 -0.647385 -0.700984
                  CHANNELS 3 Zrotation Xrotation Yrotation
                  End Site
                  {
                    OFFSET -1.69225 -0.51767 -0.607171
                  }
                }
              }
            }
          }
        }
      }
      JOINT lCollar
      {
        OFFSET 2.68224 19.2634 -4.8768
        CHANNELS 3 Zrotation Xrotation Yrotation
        JOINT lShldr
        {
          OFFSET 8.77824 -1.95073 1.46304
          CHANNELS 3 Zrotation Xrotation Yrotation
          JOINT lForeArm
          {
            OFFSET 28.1742 -1.7115 0.48768
            CHANNELS 3 Zrotation Xrotation Yrotation
            JOINT lHand
            {
              OFFSET 22.5879 0.773209 7.07136
              CHANNELS 3 Zrotation Xrotation Yrotation
              JOINT lThumb1
              {
                OFFSET 1.2192 -0.487915 3.41376
                CHANNELS 3 Zrotation Xrotation Yrotation
                JOINT lThumb2
                {
                  OFFSET 3.37035 -0.52449 3.41376
                  CHANNELS 3 Zrotation Xrotation Yrotation
                  End Site
                  {
                    OFFSET 1.78271 -1.18214 1.43049
                  }
                }
              }
              JOINT lIndex1
              {
                OFFSET 7.75947 0.938293 5.60832
                CHANNELS 3 Zrotation Xrotation Yrotation
                JOINT lIndex2
                {
                  OFFSET 2.54057 -0.884171 1.56538
                  CHANNELS 3 Zrotation Xrotation Yrotation
                  End Site
                  {
                    OFFSET 1.62519 -0.234802 1.16502
                  }
                }
              }
              JOINT lMid1
              {
                OFFSET 8.24714 1.18213 3.41376
                CHANNELS 3 Zrotation Xrotation Yrotation
                JOINT lMid2
                {
                  OFFSET 3.10165 -0.590103 1.0647
                  CHANNELS 3 Zrotation Xrotation Yrotation
                  End Site
                  {
                    OFFSET 2.48547 -0.328903 0.83742
                  }
                }
              }
              JOINT lRing1
              {
                OFFSET 8.82822 0.546677 1.51678
                CHANNELS 3 Zrotation Xrotation Yrotation
                JOINT lRing2
                {
                  OFFSET 2.60934 -0.819778 -0.0198488
                  CHANNELS 3 Zrotation Xrotation Yrotation
                  End Site
                  {
                    OFFSET 2.33842 -0.294052 0.168128
                  }
                }
              }
              JOINT lPinky1
              {
                OFFSET 8.27202 -0.0477905 -0.4584
                CHANNELS 3 Zrotation Xrotation Yrotation
                JOINT lPinky2
                {
                  OFFSET 1.82734 -0.647385 -0.700984
                  CHANNELS 3 Zrotation Xrotation Yrotation
                  End Site
                  {
                    OFFSET 1.69225 -0.51767 -0.607171
                  }
                }
              }
            }
          }
        }
      }
    }
  }
  JOINT rButtock
  {
    OFFSET -8.77824 4.35084 1.2192
    CHANNELS 3 Zrotation Xrotation Yrotation
    JOINT rThigh
    {
      OFFSET 0 -1.70687 -2.19456
      CHANNELS 3 Zrotation Xrotation Yrotation
      JOINT rShin
      {
        OFFSET 0 -36.8199 0.73152
        CHANNELS 3 Zrotation Xrotation Yrotation
        JOINT rFoot
        {
          OFFSET 0.73152 -45.1104 -5.12064
          CHANNELS 3 Zrotation Xrotation Yrotation
          End Site
          {
            OFFSET -1.1221 -3.69964 12.103
          }
        }
      }
    }
  }
  JOINT lButtock
  {
    OFFSET 8.77824 4.35084 1.2192
    CHANNELS 3 Zrotation Xrotation Yrotation
    JOINT lThigh
    {
      OFFSET 0 -1.70687 -2.19456
      CHANNELS 3 Zrotation Xrotation Yrotation
      JOINT lShin
      {
        OFFSET 0 -36.8199 0.73152
        CHANNELS 3 Zrotation Xrotation Yrotation
        JOINT lFoot
        {
          OFFSET -0.73152 -45.1104 -5.12064
          CHANNELS 3 Zrotation Xrotation Yrotation
          End Site
          {
            OFFSET 1.1221 -3.69964 12.103
          }
        }
      }
    }
  }
}
MOTION
Frames:	9
Frame Time:	0.03333
0.0 0.0 0.0 0.0 0.0 0.0 0.0 0.0 0.0 0.0 0.0 0.0 0.0 0.0 0.0 0.0 0.0 0.0 0.0 0.0 0.0 0.0 0.0 0.0 0.0 0.0 0.0 0.0 0.0 0.0 0.0 0.0 0.0 0.0 0.0 0.0 0.0 0.0 0.0 0.0 0.0 0.0 0.0 0.0 0.0 0.0 0.0 0.0 0.0 0.0 0.0 0.0 0.0 0.0 0.0 0.0 0.0 0.0 0.0 0.0 0.0 0.0 0.0 0.0 0.0 0.0 0.0 0.0 0.0 0.0 0.0 0.0 0.0 0.0 0.0 0.0 0.0 0.0 0.0 0.0 0.0 0.0 0.0 0.0 0.0 0.0 0.0 0.0 0.0 0.0 0.0 0.0 0.0 0.0 0.0 0.0 0.0 0.0 0.0 0.0 0.0 0.0 0.0 0.0 0.0 0.0 0.0 0.0 0.0 0.0 0.0 0.0 0.0 0.0 0.0 0.0 0.0 0.0 0.0 0.0 0.0 0.0 0.0 0.0 0.0 0.0 0.0 0.0 0.0 0.0 0.0 0.0
0.0448 62.6225 -0.1405 -179.903917 -11.204871 178.979313 -1.785843 3.432918 27.505609 10.454954 2.416429 -61.171401 -1.348451 -1.765598 -168.702388 -29.846305 45.65962 -136.506575 -147.117084 8.360338 27.820844 46.257092 3.469899 8.11275 -83.561201 -32.381208 166.062407 -160.0104 32.063683 168.161202 8.032507 -0.903368 145.95016 56.346765 -34.77232 -30.996713 173.690614 -6.221365 63.476105 162.851941 23.378217 -54.108148 -166.331302 -41.606568 132.261004 157.170942 -0.852828 -16.45864 2.43237 5.600219 -124.5411 -137.037784 27.150647 67.22845 -87.994759 16.861146 -98.016233 -152.239065 -13.51561 -166.184872 47.313355 7.400603 -58.020135 14.15107 0.626977 -16.572849 -63.292425 43.065217 -25.188721 41.385218 84.479614 -50.397852 -2.703355 22.792544 -172.518577 177.307333 70.998472 -85.419576 -97.586093 -5.676158 -51.49129 134.298708 -5.366894 -72.573784 -26.625673 -39.29108 -16.72011 -22.980253 7.080524 -48.56304 160.383132 6.81187 -39.905582 11.80477 9.723669 154.491779 132.047077 41.037459 121.464091 137.969491 7.257049 -131.626871 127.792016 17.724159 75.994217 -42.062249 25.313613 1.662389 9.479929 59.954812 -180.0 18.339277 59.885262 14.860025 5.21201 -3.062713 92.621197 -72.938119 -7.884428 103.672465 1.726982 -48.363158 -0.184628 -3.180614 47.675681 -139.463849 -4.453226 -7.332297 -37.359697 -77.832237 26.693853 84.909815
1.3711 61.9111 0.0906 -170.588258 -15.218417 175.674498 7.949599 16.615833 -180.0 4.39038 6.748937 -164.006733 -0.164819 32.121028 -114.905674 49.827405 27.599576 112.854689 -0.275928 -0.006081 2.525197 -19.089722 2.546766 -15.061177 6.07575 1.750842 -4.559764 54.740878 13.549659 0.694262 177.637832 -10.56627 83.559279 175.281914 -12.793067 143.795036 168.462608 -4.198337 92.67327 -119.55373 15.105773 40.856313 -171.487132 -50.876778 132.930857 -57.83155 57.063621 49.578 79.743068 -72.051583 57.628219 -13.143717 -54.369965 -12.675866 -2.903644 -13.896104 -1.265196 -1.061601 -43.461023 -19.530392 6.834396 -41.5765 -9.581719 -154.845066 17.826375 -176.456124 145.443154 17.186675 -146.168355 -75.605157 -71.825258 -109.579875 -132.292496 -1.941386 -151.707662 155.912221 66.090712 -141.683084 1.311334 -6.721408 3.419503 7.765339 -30.560985 27.156811 5.612616 -2.249484 11.632143 148.000342 -11.548827 -112.233585 170.892107 -3.351605 -157.81956 171.546129 -28.463303 -167.318564 7.040584 -1.933289 -3.456111 42.484493 -63.253574 51.349104 103.541083 -65.579121 75.641613 60.60131 -17.425752 39.263971 6.905774 8.585951 -9.89183 -23.231343 -14.62132 88.556241 42.456705 -8.214654 -68.765322 -7.701414 -10.504217 -39.034367 0.86382 3.490564 -0.0 49.892833 -41.353499 38.909245 2.013125 60.762598 78.856376 4.343212 -39.670679 -94.092405
2.5017 62.36000000000001 0.25370000000000004 -167.422887 -15.315171 172.543743 12.079253 24.44354 -4.597249 -3.935415 -12.729884 20.504489 2.474955 31.96265 -146.553961 23.22044 43.637083 149.203372 -12.938438 1.325637 -11.651008 23.942014 -4.390502 -20.495949 -1.822771 36.513563 2.911295 -117.301045 -17.281514 152.79399 11.916772 -17.126668 -89.764812 173.959948 -14.003225 141.795047 -170.594632 2.347816 84.716989 3.400599 -54.013739 26.767975 -163.929758 -45.312668 120.00683 -1.429657 20.142412 20.151282 -2.676579 1.207857 11.432176 1.812493 -0.103961 -16.389036 -83.376562 62.188801 91.655517 33.339707 4.635249 14.728759 -137.276423 -11.113866 -142.144867 -16.059871 -35.01452 -48.802197 155.273357 -5.726147 -153.579424 -129.227594 -88.696437 -168.5068 -26.688924 78.694538 90.12504 -164.807483 -18.294279 -150.339506 165.457342 12.1934 -87.446082 3.168077 -38.050767 -22.053924 153.921861 -3.068144 -121.300318 170.251128 -10.856094 -91.526204 169.347727 -10.572604 -166.236581 69.870963 -75.294583 98.335974 157.045542 -2.049642 -174.868133 159.79986 7.51784 -150.07868 -156.610449 61.381173 138.780751 -177.308903 -24.953016 -177.012428 0.452251 2.99325 0.23251 -14.33825 7.677131 -0.0 4.835 50.154223 -160.513656 82.800305 -37.964679 173.825351 160.126347 71.426303 15.692783 -136.998933 1.601982 89.093419 64.912486 -13.670013 -74.716247 62.908772 -31.509326 -34.374578
3.3960999999999997 59.08710000000001 0.2823 -165.750511 -17.875342 173.502606 13.184796 17.142116 -3.416767 -2.431021 -8.089409 19.632195 -4.411941 25.074385 -73.213148 41.447578 0.914839 75.969837 0.646454 0.080553 14.20569 11.843441 -2.508102 -23.834827 -10.770162 -60.959755 -28.03025 18.081353 -6.752212 -50.80855 -61.862265 85.201087 125.458364 -8.166638 22.843689 -2.58139 93.652531 -56.119616 39.39066 -99.186384 36.068706 78.499374 22.787091 -41.242681 -14.807143 5.99219 2.308124 11.979072 -40.516691 50.873743 47.891057 -96.067858 77.258589 86.586727 -29.248174 54.997005 41.284399 7.652325 53.342147 12.664574 -61.528067 -46.001368 -62.676695 9.084334 -53.208183 -24.621762 9.255634 31.304724 -14.202404 -62.752581 -1.138076 -38.114575 2.702831 -7.659908 -34.874936 2.693496 24.171557 -4.48611 87.029546 37.736264 -40.267498 116.08896 -41.589482 -100.494846 171.445772 -51.751024 -122.832346 164.902422 -9.826754 -103.654002 -0.622931 -14.767264 11.742132 179.014088 -49.035893 -138.384763 45.711518 -73.560769 41.241092 -160.915109 41.634865 149.773889 170.950461 8.12805 125.466029 -85.409138 69.65905 107.351816 -12.161097 -0.427777 -0.0 0.960612 11.846056 -0.0 10.130165 43.180352 89.821557 -99.227899 -30.674447 -174.763112 9.383668 -4.607511 -4.868292 59.787606 -44.933491 140.823146 84.551143 2.782587 82.895295 17.047422 17.489855 -178.125857
3.6912000000000003 58.546 -0.0131 -164.830686 -18.951254 175.565159 10.32615 7.363143 109.676219 -2.804149 -0.489538 -90.012639 4.854724 25.203738 -51.214013 31.987694 -23.508605 55.979269 3.521155 1.043097 32.993545 -0.414632 0.043246 -11.908649 -6.341842 -43.630402 -21.33497 35.319822 -12.890429 -44.198411 -110.25796 -14.83072 139.91879 53.430018 -68.822174 34.591035 166.745544 -33.742385 85.706278 -83.893906 36.206855 42.709344 -156.829964 -36.941746 130.82563 -140.685712 -6.013228 130.261388 -157.117101 -39.59219 137.293242 3.72096 30.852019 25.752555 -129.253305 1.775638 170.096321 50.929283 42.811651 -18.027651 -136.135088 16.060366 -145.204174 -165.719205 15.437741 -123.54317 -5.11181 -18.369114 -1.914659 104.450094 -17.288262 174.716771 178.635034 0.015799 149.005859 9.513905 40.538685 -7.07112 175.665316 2.441458 -84.191885 173.414574 -6.634579 -52.373499 158.467522 -24.489185 -118.94752 4.987412 21.145352 4.240287 159.900842 -34.902888 -144.382184 162.381068 -19.767486 -130.293891 153.69583 1.072879 176.889108 166.243026 13.537036 -171.964349 -93.770221 77.450062 72.930123 150.815636 36.306965 -160.087746 68.564655 39.304292 49.314431 -68.056067 48.336571 -0.0 32.189478 23.02833 -95.675834 -30.065733 -14.007101 2.660724 -0.016782 -3.898478 -0.0 69.293304 -49.071099 64.303129 10.843476 79.221703 -126.394773 146.65116 -15.430831 -130.098938
3.2703 57.83669999999999 -0.7853000000000001 -164.968319 -18.10182 176.717811 10.152585 9.124946 -1.204774 1.656082 -6.296812 23.823201 27.549453 24.496138 60.968456 -44.451 5.286316 -66.917393 9.331289 2.231651 26.846143 -5.605927 0.242848 -4.957043 -156.69345 0.564319 172.291509 -118.96961 71.429992 68.882708 -151.386249 77.389191 -150.336277 -11.868014 31.204264 -1.387389 -99.118014 33.682122 61.950649 -132.871652 -10.140062 78.491625 -13.872358 14.595411 3.356066 -168.088217 -1.188183 104.833624 -74.601211 58.105627 85.261201 -20.650252 -33.200785 -52.64327 -124.316654 -7.659305 167.184198 66.094344 85.54916 -9.592122 -0.765555 -35.502451 -4.627658 -111.205054 -18.300223 -120.946652 140.167432 35.302042 -139.181136 175.231982 40.73286 -115.632792 -98.781279 -70.719305 -31.87787 -166.35074 -14.539047 -149.223841 87.368518 34.67009 -37.240797 -29.733107 -8.340787 -30.246071 -7.658104 -19.281823 0.178055 172.301904 -41.291616 -101.73776 14.99919 40.350852 -21.961553 169.884391 42.337291 -155.984339 63.295182 82.841918 -78.412442 159.296795 46.363462 -155.694295 154.807657 -12.5474 131.767923 173.005441 15.5043 116.685831 -18.850099 -1.487651 -9.070129 8.165345 11.134305 -110.867057 -35.259966 -17.313372 108.436671 -90.533684 18.409327 2.977735 -132.689128 71.875689 -48.760409 -153.979944 -2.755814 -87.49112 -73.269619 9.869989 79.832618 -93.935917 -28.42652 6.84311
2.3496 56.73740000000001 -1.957 -165.765238 -16.930935 176.863787 5.335312 6.164329 138.986483 -6.718625 -0.765237 -114.847601 29.050436 29.15674 97.44727 -37.713513 33.223824 -99.565533 19.242232 5.349536 30.815606 -7.823085 0.703388 -10.259756 -1.724868 17.706346 -7.678538 -105.878068 -16.49584 167.087109 26.785552 2.398676 -84.701209 169.375288 -16.857499 142.999688 -166.163359 -5.750413 84.633292 28.670998 -53.58328 35.241503 -9.237378 -7.497851 -2.360909 -4.784823 14.674897 5.371262 7.857792 19.439961 6.682545 -116.505505 -81.885972 -95.915959 -64.384029 53.691357 99.870219 95.150663 65.292546 -83.793316 -10.905707 -44.240111 -11.903508 57.200567 33.125511 -26.929825 142.691933 34.263585 -138.891217 -94.502261 -36.520624 -128.73131 -1.056418 -36.884557 -31.947519 3.726681 31.898651 -2.716529 17.719483 5.950167 -0.550235 122.454806 -45.28226 -116.296223 81.025084 41.586341 -62.96418 77.174456 41.181627 -45.61328 116.810556 43.297624 -109.663167 30.164254 70.583175 -40.593918 57.545223 83.977442 -73.575157 92.411105 67.553369 -84.630982 144.208167 -31.274711 126.258479 139.658635 2.062067 124.172793 -85.931668 39.407769 -53.89125 64.034259 48.462372 -56.106375 -37.111202 -15.680813 90.905891 -73.425745 2.576419 -4.910856 -9.006448 -3.111315 11.247572 82.341478 -62.220281 -180.0 80.107567 -34.661583 -25.263389 -108.413596 45.766386 20.760761
1.2339 55.9008 -3.3541000000000003 -166.808895 -17.129642 176.665653 3.026766 10.613922 40.515711 -0.335871 -10.460636 -15.205252 4.287215 25.610008 -76.400596 32.712198 -13.107207 67.003916 24.422329 9.214106 40.846151 -7.690009 1.531159 -22.490156 -1.540207 0.332037 -12.184921 68.324461 26.745071 -0.45144 -84.272523 25.852951 65.574595 19.960086 -39.779508 13.55409 -1.596936 -3.959061 5.303107 -102.782641 -50.38335 166.986813 -18.992471 -0.110811 2.917507 -165.409573 -21.742507 115.589248 -170.106869 -52.386218 138.993395 -117.106892 -5.991007 105.888521 -135.623367 -9.574601 164.267559 20.171945 54.668641 9.285872 -5.76944 -13.888462 0.895779 -118.670315 48.946018 -131.16818 133.459489 43.833429 -128.261348 -100.634955 -23.372635 -119.961201 -79.626263 -39.805523 -82.294969 120.509855 78.678019 -101.353051 6.268333 3.651194 3.704163 133.903894 -48.200722 -111.277884 80.303292 45.514363 -62.988815 85.988026 39.877322 -49.750802 -62.424659 -62.680746 -35.933665 22.02246 -3.331212 -3.359756 142.795697 -9.525538 169.797477 30.67939 -48.418012 41.783829 3.219563 44.745506 -15.185881 149.378534 -15.74455 140.326368 15.078977 3.321933 23.110793 -24.828791 16.404199 118.007448 23.09336 -40.920121 -54.016757 -84.079902 -42.946934 -155.127932 -43.929515 -0.983789 -19.024473 113.72287 -32.471446 -0.0 -74.151534 34.114993 74.919838 30.202207 -3.219925 -7.321964
